<svg width="25" height="77" viewBox="0 0 25 77" fill="none" xmlns="http://www.w3.org/2000/svg">
<path d="M13.2418 57.1083C5.12587 57.1083 0 13.475 0 9.37607C0 5.27714 2.77651 0 11.9604 0C21.1442 0 24.3479 6.23964 24.3479 9.37607C24.3479 12.5125 21.3578 57.1083 13.2418 57.1083Z" fill="#FBDA73"/>
<path d="M13.2418 57.1083C17.1535 37.3564 18.297 27.8267 18.297 22.4901C18.297 17.1535 20.203 8.00495 11.9603 0C21.1442 0 24.3478 6.23964 24.3478 9.37607C24.3478 12.5125 21.3578 57.1083 13.2418 57.1083Z" fill="#23A455"/>
<path d="M13.2418 57.1083C17.1535 37.3564 18.297 27.8267 18.297 22.4901C18.297 17.1535 20.203 8.00495 11.9603 0C21.1442 0 24.3478 6.23964 24.3478 9.37607C24.3478 12.5125 21.3578 57.1083 13.2418 57.1083Z" fill="#F5D46A"/>
<circle cx="12.1918" cy="68.6583" r="8.34167" fill="#FBDA73"/>
<path d="M20.5333 68.6583C20.5333 73.2653 16.7986 77 12.1917 77C14.8663 73.5693 15.6286 72.0445 15.6286 68.995C15.6286 65.9455 14.4851 62.896 12.1917 60.3167C16.7986 60.3167 20.5333 64.0513 20.5333 68.6583Z" fill="#F5D46A"/>
</svg>
